<svg width="53" height="26" viewBox="0 0 53 26" fill="none" xmlns="http://www.w3.org/2000/svg">
<path d="M0 25.5L7.88733 0.676055H14.7535L22.6761 25.5H19.331L16.338 15.993H6.30282L3.30986 25.5H0ZM7.1831 13.2465H15.4578L11.7606 1.55634H10.8803L7.1831 13.2465Z" fill="#1E2734"/>
<path d="M28.7326 25.5V15.817H25.1058V13.141H29.6481C30.9157 13.141 31.6199 13.7395 31.6199 15.1832V25.5H28.7326ZM27.3241 7.78884C27.3241 6.41559 28.4157 5.42969 29.7889 5.42969C31.1974 5.42969 32.3241 6.41559 32.3241 7.78884C32.3241 9.16209 31.1974 10.148 29.7889 10.148C28.4157 10.148 27.3241 9.16209 27.3241 7.78884Z" fill="#1E2734"/>
<path d="M36.7254 13.1761L41.0236 6.81298L36.7254 0.5H41.6849L44.6352 5.03432L47.6109 0.5H52.5705L48.2722 6.81298L52.5705 13.1761H47.6109L44.6352 8.61668L41.6849 13.1761H36.7254Z" fill="#1E2734"/>
</svg>
